  0
SECTION
  2
HEADER
  9
$ACADVER
  1
AC1014
  9
$HANDSEED
  5
FFFF
  9
$MEASUREMENT
 70
     1
  0
ENDSEC
  0
SECTION
  2
TABLES
  0
TABLE
  2
VPORT
  5
8
330
0
100
AcDbSymbolTable
 70
     4
  0
VPORT
  5
2E
330
8
100
AcDbSymbolTableRecord
100
AcDbViewportTableRecord
  2
*ACTIVE
 70
     0
 10
0.0
 20
0.0
 11
1.0
 21
1.0
 12
210.0
 22
148.5
 13
0.0
 23
0.0
 14
10.0
 24
10.0
 15
10.0
 25
10.0
 16
0.0
 26
0.0
 36
1.0
 17
0.0
 27
0.0
 37
0.0
 40
341.0
 41
1.24
 42
50.0
 43
0.0
 44
0.0
 50
0.0
 51
0.0
 71
     0
 72
   100
 73
     1
 74
     3
 75
     0
 76
     0
 77
     0
 78
     0
  0
ENDTAB
  0
TABLE
  2
LTYPE
  5
5
330
0
100
AcDbSymbolTable
 70
     1
  0
LTYPE
  5
14
330
5
100
AcDbSymbolTableRecord
100
AcDbLinetypeTableRecord
  2
BYBLOCK
 70
     0
  3

 72
    65
 73
     0
 40
0.0
  0
LTYPE
  5
15
330
5
100
AcDbSymbolTableRecord
100
AcDbLinetypeTableRecord
  2
BYLAYER
 70
     0
  3

 72
    65
 73
     0
 40
0.0
  0
LTYPE
  5
16
330
5
100
AcDbSymbolTableRecord
100
AcDbLinetypeTableRecord
  2
CONTINUOUS
 70
     0
  3
Solid line
 72
    65
 73
     0
 40
0.0
  0
ENDTAB
  0
TABLE
  2
LAYER
  5
2
100
AcDbSymbolTable
 70
1
  0
LAYER
  5
50
100
AcDbSymbolTableRecord
100
AcDbLayerTableRecord
  2
0
 70
0
  6
CONTINUOUS
  0
ENDTAB
  0
TABLE
  2
STYLE
  5
3
330
0
100
AcDbSymbolTable
 70
     1
  0
STYLE
  5
11
330
3
100
AcDbSymbolTableRecord
100
AcDbTextStyleTableRecord
  2
STANDARD
 70
     0
 40
0.0
 41
1.0
 50
0.0
 71
     0
 42
2.5
  3
txt
  4

  0
ENDTAB
  0
TABLE
  2
VIEW
  5
6
330
0
100
AcDbSymbolTable
 70
     0
  0
ENDTAB
  0
TABLE
  2
UCS
  5
7
330
0
100
AcDbSymbolTable
 70
     0
  0
ENDTAB
  0
TABLE
  2
APPID
  5
9
330
0
100
AcDbSymbolTable
 70
     2
  0
APPID
  5
12
330
9
100
AcDbSymbolTableRecord
100
AcDbRegAppTableRecord
  2
ACAD
 70
     0
  0
ENDTAB
  0
TABLE
  2
DIMSTYLE
  5
A
330
0
100
AcDbSymbolTable
 70
     1
  0
DIMSTYLE
105
27
330
A
100
AcDbSymbolTableRecord
100
AcDbDimStyleTableRecord
  2
ISO-25
 70
     0
  3

  4

  5

  6

  7

 40
1.0
 41
2.5
 42
0.625
 43
3.75
 44
1.25
 45
0.0
 46
0.0
 47
0.0
 48
0.0
140
2.5
141
2.5
142
0.0
143
0.03937007874016
144
1.0
145
0.0
146
1.0
147
0.625
 71
     0
 72
     0
 73
     0
 74
     0
 75
     0
 76
     0
 77
     1
 78
     8
170
     0
171
     3
172
     1
173
     0
174
     0
175
     0
176
     0
177
     0
178
     0
270
     2
271
     2
272
     2
273
     2
274
     3
340
11
275
     0
280
     0
281
     0
282
     0
283
     0
284
     8
285
     0
286
     0
287
     3
288
     0
  0
ENDTAB
  0
TABLE
  2
BLOCK_RECORD
  5
1
330
0
100
AcDbSymbolTable
 70
     1
  0
BLOCK_RECORD
  5
1F
330
1
100
AcDbSymbolTableRecord
100
AcDbBlockTableRecord
  2
*MODEL_SPACE
  0
BLOCK_RECORD
  5
1B
330
1
100
AcDbSymbolTableRecord
100
AcDbBlockTableRecord
  2
*PAPER_SPACE
  0
ENDTAB
  0
ENDSEC
  0
SECTION
  2
BLOCKS
  0
BLOCK
  5
20
330
1F
100
AcDbEntity
  8
0
100
AcDbBlockBegin
  2
*MODEL_SPACE
 70
     0
 10
0.0
 20
0.0
 30
0.0
  3
*MODEL_SPACE
  1

  0
ENDBLK
  5
21
330
1F
100
AcDbEntity
  8
0
100
AcDbBlockEnd
  0
BLOCK
  5
1C
330
1B
100
AcDbEntity
 67
     1
  8
0
100
AcDbBlockBegin
  2
*PAPER_SPACE
  1

  0
ENDBLK
  5
1D
330
1B
100
AcDbEntity
 67
     1
  8
0
100
AcDbBlockEnd
  0
ENDSEC
  0
SECTION
  2
ENTITIES
  0
SPLINE
  5
100
100
AcDbEntity
  8
0
 62
5
100
AcDbSpline
 70
8
 71
3
 72
8
 73
4
 74
0
 40
0
 40
0
 40
0
 40
0
 40
1
 40
1
 40
1
 40
1
 10
74.074486
 20
32.473160
 30
0.0
 10
74.074486
 20
31.568444
 30
0.0
 10
73.341068
 20
30.835026
 30
0.0
 10
72.436352
 20
30.835026
 30
0.0
  0
SPLINE
  5
101
100
AcDbEntity
  8
0
 62
5
100
AcDbSpline
 70
8
 71
3
 72
8
 73
4
 74
0
 40
0
 40
0
 40
0
 40
0
 40
1
 40
1
 40
1
 40
1
 10
72.436352
 20
30.835026
 30
0.0
 10
71.531635
 20
30.835026
 30
0.0
 10
70.798217
 20
31.568444
 30
0.0
 10
70.798217
 20
32.473160
 30
0.0
  0
SPLINE
  5
102
100
AcDbEntity
  8
0
 62
5
100
AcDbSpline
 70
8
 71
3
 72
8
 73
4
 74
0
 40
0
 40
0
 40
0
 40
0
 40
1
 40
1
 40
1
 40
1
 10
70.798217
 20
32.473160
 30
0.0
 10
70.798217
 20
33.058409
 30
0.0
 10
71.110444
 20
33.599202
 30
0.0
 10
71.617284
 20
33.891826
 30
0.0
  0
SPLINE
  5
103
100
AcDbEntity
  8
0
 62
5
100
AcDbSpline
 70
8
 71
3
 72
8
 73
4
 74
0
 40
0
 40
0
 40
0
 40
0
 40
1
 40
1
 40
1
 40
1
 10
71.617284
 20
33.891826
 30
0.0
 10
72.124125
 20
34.184451
 30
0.0
 10
72.748578
 20
34.184451
 30
0.0
 10
73.255419
 20
33.891826
 30
0.0
  0
SPLINE
  5
104
100
AcDbEntity
  8
0
 62
5
100
AcDbSpline
 70
8
 71
3
 72
8
 73
4
 74
0
 40
0
 40
0
 40
0
 40
0
 40
1
 40
1
 40
1
 40
1
 10
73.255419
 20
33.891826
 30
0.0
 10
73.762259
 20
33.599202
 30
0.0
 10
74.074486
 20
33.058409
 30
0.0
 10
74.074486
 20
32.473160
 30
0.0
  0
SPLINE
  5
105
100
AcDbEntity
  8
0
 62
5
100
AcDbSpline
 70
8
 71
3
 72
8
 73
4
 74
0
 40
0
 40
0
 40
0
 40
0
 40
1
 40
1
 40
1
 40
1
 10
73.180958
 20
38.287261
 30
0.0
 10
73.180958
 20
37.876026
 30
0.0
 10
72.847586
 20
37.542654
 30
0.0
 10
72.436352
 20
37.542654
 30
0.0
  0
SPLINE
  5
106
100
AcDbEntity
  8
0
 62
5
100
AcDbSpline
 70
8
 71
3
 72
8
 73
4
 74
0
 40
0
 40
0
 40
0
 40
0
 40
1
 40
1
 40
1
 40
1
 10
72.436352
 20
37.542654
 30
0.0
 10
72.025117
 20
37.542654
 30
0.0
 10
71.691745
 20
37.876026
 30
0.0
 10
71.691745
 20
38.287261
 30
0.0
  0
SPLINE
  5
107
100
AcDbEntity
  8
0
 62
5
100
AcDbSpline
 70
8
 71
3
 72
8
 73
4
 74
0
 40
0
 40
0
 40
0
 40
0
 40
1
 40
1
 40
1
 40
1
 10
71.691745
 20
38.287261
 30
0.0
 10
71.691745
 20
38.698495
 30
0.0
 10
72.025117
 20
39.031867
 30
0.0
 10
72.436352
 20
39.031867
 30
0.0
  0
SPLINE
  5
108
100
AcDbEntity
  8
0
 62
5
100
AcDbSpline
 70
8
 71
3
 72
8
 73
4
 74
0
 40
0
 40
0
 40
0
 40
0
 40
1
 40
1
 40
1
 40
1
 10
72.436352
 20
39.031867
 30
0.0
 10
72.847586
 20
39.031867
 30
0.0
 10
73.180958
 20
38.698495
 30
0.0
 10
73.180958
 20
38.287261
 30
0.0
  0
LWPOLYLINE
  5
109
100
AcDbEntity
  8
0
 62
5
100
AcDbPolyline
 90
1
 70
1
 10
74.074486
 20
32.473160
 30
0.0
  0
LWPOLYLINE
  5
10a
100
AcDbEntity
  8
0
 62
5
100
AcDbPolyline
 90
1
 70
1
 10
73.180958
 20
38.287261
 30
0.0
  0
SPLINE
  5
10b
100
AcDbEntity
  8
0
 62
5
100
AcDbSpline
 70
8
 71
3
 72
8
 73
4
 74
0
 40
0
 40
0
 40
0
 40
0
 40
1
 40
1
 40
1
 40
1
 10
19.233884
 20
38.287261
 30
0.0
 10
19.233884
 20
35.687800
 30
0.0
 10
17.126605
 20
33.580521
 30
0.0
 10
14.527145
 20
33.580521
 30
0.0
  0
SPLINE
  5
10c
100
AcDbEntity
  8
0
 62
5
100
AcDbSpline
 70
8
 71
3
 72
8
 73
4
 74
0
 40
0
 40
0
 40
0
 40
0
 40
1
 40
1
 40
1
 40
1
 10
14.527145
 20
33.580521
 30
0.0
 10
11.927684
 20
33.580521
 30
0.0
 10
9.820405
 20
35.687800
 30
0.0
 10
9.820405
 20
38.287261
 30
0.0
  0
SPLINE
  5
10d
100
AcDbEntity
  8
0
 62
5
100
AcDbSpline
 70
8
 71
3
 72
8
 73
4
 74
0
 40
0
 40
0
 40
0
 40
0
 40
1
 40
1
 40
1
 40
1
 10
9.820405
 20
38.287261
 30
0.0
 10
9.820405
 20
39.968817
 30
0.0
 10
10.717504
 20
41.522639
 30
0.0
 10
12.173775
 20
42.363417
 30
0.0
  0
SPLINE
  5
10e
100
AcDbEntity
  8
0
 62
5
100
AcDbSpline
 70
8
 71
3
 72
8
 73
4
 74
0
 40
0
 40
0
 40
0
 40
0
 40
1
 40
1
 40
1
 40
1
 10
12.173775
 20
42.363417
 30
0.0
 10
13.630045
 20
43.204195
 30
0.0
 10
15.424244
 20
43.204195
 30
0.0
 10
16.880514
 20
42.363417
 30
0.0
  0
SPLINE
  5
10f
100
AcDbEntity
  8
0
 62
5
100
AcDbSpline
 70
8
 71
3
 72
8
 73
4
 74
0
 40
0
 40
0
 40
0
 40
0
 40
1
 40
1
 40
1
 40
1
 10
16.880514
 20
42.363417
 30
0.0
 10
18.336785
 20
41.522639
 30
0.0
 10
19.233884
 20
39.968817
 30
0.0
 10
19.233884
 20
38.287261
 30
0.0
  0
LWPOLYLINE
  5
110
100
AcDbEntity
  8
0
 62
5
100
AcDbPolyline
 90
4
 70
1
 10
86.089532
 20
44.669971
 30
0.0
 10
108.780552
 20
44.669971
 30
0.0
 10
108.780552
 20
36.214501
 30
0.0
 10
86.089532
 20
36.214501
 30
0.0
  0
SPLINE
  5
111
100
AcDbEntity
  8
0
 62
5
100
AcDbSpline
 70
8
 71
3
 72
8
 73
4
 74
0
 40
0
 40
0
 40
0
 40
0
 40
1
 40
1
 40
1
 40
1
 10
30.893270
 20
38.287261
 30
0.0
 10
30.893270
 20
36.605705
 30
0.0
 10
29.996171
 20
35.051883
 30
0.0
 10
28.539900
 20
34.211105
 30
0.0
  0
SPLINE
  5
112
100
AcDbEntity
  8
0
 62
5
100
AcDbSpline
 70
8
 71
3
 72
8
 73
4
 74
0
 40
0
 40
0
 40
0
 40
0
 40
1
 40
1
 40
1
 40
1
 10
28.539900
 20
34.211105
 30
0.0
 10
27.083630
 20
33.370327
 30
0.0
 10
25.289431
 20
33.370327
 30
0.0
 10
23.833161
 20
34.211105
 30
0.0
  0
SPLINE
  5
113
100
AcDbEntity
  8
0
 62
5
100
AcDbSpline
 70
8
 71
3
 72
8
 73
4
 74
0
 40
0
 40
0
 40
0
 40
0
 40
1
 40
1
 40
1
 40
1
 10
23.833161
 20
34.211105
 30
0.0
 10
22.376890
 20
35.051883
 30
0.0
 10
21.479791
 20
36.605705
 30
0.0
 10
21.479791
 20
38.287261
 30
0.0
  0
SPLINE
  5
114
100
AcDbEntity
  8
0
 62
5
100
AcDbSpline
 70
8
 71
3
 72
8
 73
4
 74
0
 40
0
 40
0
 40
0
 40
0
 40
1
 40
1
 40
1
 40
1
 10
21.479791
 20
38.287261
 30
0.0
 10
21.479791
 20
39.968817
 30
0.0
 10
22.376890
 20
41.522639
 30
0.0
 10
23.833161
 20
42.363417
 30
0.0
  0
SPLINE
  5
115
100
AcDbEntity
  8
0
 62
5
100
AcDbSpline
 70
8
 71
3
 72
8
 73
4
 74
0
 40
0
 40
0
 40
0
 40
0
 40
1
 40
1
 40
1
 40
1
 10
23.833161
 20
42.363417
 30
0.0
 10
25.289431
 20
43.204195
 30
0.0
 10
27.083630
 20
43.204195
 30
0.0
 10
28.539900
 20
42.363417
 30
0.0
  0
SPLINE
  5
116
100
AcDbEntity
  8
0
 62
5
100
AcDbSpline
 70
8
 71
3
 72
8
 73
4
 74
0
 40
0
 40
0
 40
0
 40
0
 40
1
 40
1
 40
1
 40
1
 10
28.539900
 20
42.363417
 30
0.0
 10
29.996171
 20
41.522639
 30
0.0
 10
30.893270
 20
39.968817
 30
0.0
 10
30.893270
 20
38.287261
 30
0.0
  0
LWPOLYLINE
  5
117
100
AcDbEntity
  8
0
 62
5
100
AcDbPolyline
 90
1
 70
1
 10
19.233884
 20
38.287261
 30
0.0
  0
SPLINE
  5
118
100
AcDbEntity
  8
0
 62
5
100
AcDbSpline
 70
8
 71
3
 72
8
 73
4
 74
0
 40
0
 40
0
 40
0
 40
0
 40
1
 40
1
 40
1
 40
1
 10
35.039057
 20
40.818025
 30
0.0
 10
35.039057
 20
40.211484
 30
0.0
 10
34.547359
 20
39.719786
 30
0.0
 10
33.940818
 20
39.719786
 30
0.0
  0
SPLINE
  5
119
100
AcDbEntity
  8
0
 62
5
100
AcDbSpline
 70
8
 71
3
 72
8
 73
4
 74
0
 40
0
 40
0
 40
0
 40
0
 40
1
 40
1
 40
1
 40
1
 10
33.940818
 20
39.719786
 30
0.0
 10
33.334277
 20
39.719786
 30
0.0
 10
32.842579
 20
40.211484
 30
0.0
 10
32.842579
 20
40.818025
 30
0.0
  0
SPLINE
  5
11a
100
AcDbEntity
  8
0
 62
5
100
AcDbSpline
 70
8
 71
3
 72
8
 73
4
 74
0
 40
0
 40
0
 40
0
 40
0
 40
1
 40
1
 40
1
 40
1
 10
32.842579
 20
40.818025
 30
0.0
 10
32.842579
 20
41.210388
 30
0.0
 10
33.051902
 20
41.572946
 30
0.0
 10
33.391699
 20
41.769128
 30
0.0
  0
SPLINE
  5
11b
100
AcDbEntity
  8
0
 62
5
100
AcDbSpline
 70
8
 71
3
 72
8
 73
4
 74
0
 40
0
 40
0
 40
0
 40
0
 40
1
 40
1
 40
1
 40
1
 10
33.391699
 20
41.769128
 30
0.0
 10
33.731495
 20
41.965309
 30
0.0
 10
34.150141
 20
41.965309
 30
0.0
 10
34.489938
 20
41.769128
 30
0.0
  0
SPLINE
  5
11c
100
AcDbEntity
  8
0
 62
5
100
AcDbSpline
 70
8
 71
3
 72
8
 73
4
 74
0
 40
0
 40
0
 40
0
 40
0
 40
1
 40
1
 40
1
 40
1
 10
34.489938
 20
41.769128
 30
0.0
 10
34.829734
 20
41.572946
 30
0.0
 10
35.039057
 20
41.210388
 30
0.0
 10
35.039057
 20
40.818025
 30
0.0
  0
LWPOLYLINE
  5
11d
100
AcDbEntity
  8
0
 62
5
100
AcDbPolyline
 90
1
 70
1
 10
30.893270
 20
38.287261
 30
0.0
  0
SPLINE
  5
11e
100
AcDbEntity
  8
0
 62
5
100
AcDbSpline
 70
8
 71
3
 72
8
 73
4
 74
0
 40
0
 40
0
 40
0
 40
0
 40
1
 40
1
 40
1
 40
1
 10
35.039057
 20
35.756496
 30
0.0
 10
35.039057
 20
35.149955
 30
0.0
 10
34.547359
 20
34.658257
 30
0.0
 10
33.940818
 20
34.658257
 30
0.0
  0
SPLINE
  5
11f
100
AcDbEntity
  8
0
 62
5
100
AcDbSpline
 70
8
 71
3
 72
8
 73
4
 74
0
 40
0
 40
0
 40
0
 40
0
 40
1
 40
1
 40
1
 40
1
 10
33.940818
 20
34.658257
 30
0.0
 10
33.334277
 20
34.658257
 30
0.0
 10
32.842579
 20
35.149955
 30
0.0
 10
32.842579
 20
35.756496
 30
0.0
  0
SPLINE
  5
120
100
AcDbEntity
  8
0
 62
5
100
AcDbSpline
 70
8
 71
3
 72
8
 73
4
 74
0
 40
0
 40
0
 40
0
 40
0
 40
1
 40
1
 40
1
 40
1
 10
32.842579
 20
35.756496
 30
0.0
 10
32.842579
 20
36.148859
 30
0.0
 10
33.051902
 20
36.511417
 30
0.0
 10
33.391699
 20
36.707599
 30
0.0
  0
SPLINE
  5
121
100
AcDbEntity
  8
0
 62
5
100
AcDbSpline
 70
8
 71
3
 72
8
 73
4
 74
0
 40
0
 40
0
 40
0
 40
0
 40
1
 40
1
 40
1
 40
1
 10
33.391699
 20
36.707599
 30
0.0
 10
33.731495
 20
36.903780
 30
0.0
 10
34.150141
 20
36.903780
 30
0.0
 10
34.489938
 20
36.707599
 30
0.0
  0
SPLINE
  5
122
100
AcDbEntity
  8
0
 62
5
100
AcDbSpline
 70
8
 71
3
 72
8
 73
4
 74
0
 40
0
 40
0
 40
0
 40
0
 40
1
 40
1
 40
1
 40
1
 10
34.489938
 20
36.707599
 30
0.0
 10
34.829734
 20
36.511417
 30
0.0
 10
35.039057
 20
36.148859
 30
0.0
 10
35.039057
 20
35.756496
 30
0.0
  0
LWPOLYLINE
  5
123
100
AcDbEntity
  8
0
 62
5
100
AcDbPolyline
 90
1
 70
1
 10
35.039057
 20
40.818025
 30
0.0
  0
SPLINE
  5
124
100
AcDbEntity
  8
0
 62
5
100
AcDbSpline
 70
8
 71
3
 72
8
 73
4
 74
0
 40
0
 40
0
 40
0
 40
0
 40
1
 40
1
 40
1
 40
1
 10
46.123255
 20
38.287261
 30
0.0
 10
46.123255
 20
36.605705
 30
0.0
 10
45.226155
 20
35.051883
 30
0.0
 10
43.769885
 20
34.211105
 30
0.0
  0
SPLINE
  5
125
100
AcDbEntity
  8
0
 62
5
100
AcDbSpline
 70
8
 71
3
 72
8
 73
4
 74
0
 40
0
 40
0
 40
0
 40
0
 40
1
 40
1
 40
1
 40
1
 10
43.769885
 20
34.211105
 30
0.0
 10
42.313615
 20
33.370327
 30
0.0
 10
40.519416
 20
33.370327
 30
0.0
 10
39.063145
 20
34.211105
 30
0.0
  0
SPLINE
  5
126
100
AcDbEntity
  8
0
 62
5
100
AcDbSpline
 70
8
 71
3
 72
8
 73
4
 74
0
 40
0
 40
0
 40
0
 40
0
 40
1
 40
1
 40
1
 40
1
 10
39.063145
 20
34.211105
 30
0.0
 10
37.606875
 20
35.051883
 30
0.0
 10
36.709775
 20
36.605705
 30
0.0
 10
36.709775
 20
38.287261
 30
0.0
  0
SPLINE
  5
127
100
AcDbEntity
  8
0
 62
5
100
AcDbSpline
 70
8
 71
3
 72
8
 73
4
 74
0
 40
0
 40
0
 40
0
 40
0
 40
1
 40
1
 40
1
 40
1
 10
36.709775
 20
38.287261
 30
0.0
 10
36.709775
 20
39.968817
 30
0.0
 10
37.606875
 20
41.522639
 30
0.0
 10
39.063145
 20
42.363417
 30
0.0
  0
SPLINE
  5
128
100
AcDbEntity
  8
0
 62
5
100
AcDbSpline
 70
8
 71
3
 72
8
 73
4
 74
0
 40
0
 40
0
 40
0
 40
0
 40
1
 40
1
 40
1
 40
1
 10
39.063145
 20
42.363417
 30
0.0
 10
40.519416
 20
43.204195
 30
0.0
 10
42.313615
 20
43.204195
 30
0.0
 10
43.769885
 20
42.363417
 30
0.0
  0
SPLINE
  5
129
100
AcDbEntity
  8
0
 62
5
100
AcDbSpline
 70
8
 71
3
 72
8
 73
4
 74
0
 40
0
 40
0
 40
0
 40
0
 40
1
 40
1
 40
1
 40
1
 10
43.769885
 20
42.363417
 30
0.0
 10
45.226155
 20
41.522639
 30
0.0
 10
46.123255
 20
39.968817
 30
0.0
 10
46.123255
 20
38.287261
 30
0.0
  0
LWPOLYLINE
  5
12a
100
AcDbEntity
  8
0
 62
5
100
AcDbPolyline
 90
1
 70
1
 10
35.039057
 20
35.756496
 30
0.0
  0
SPLINE
  5
12b
100
AcDbEntity
  8
0
 62
5
100
AcDbSpline
 70
8
 71
3
 72
8
 73
4
 74
0
 40
0
 40
0
 40
0
 40
0
 40
1
 40
1
 40
1
 40
1
 10
57.782639
 20
38.287261
 30
0.0
 10
57.782639
 20
35.687800
 30
0.0
 10
55.675360
 20
33.580521
 30
0.0
 10
53.075899
 20
33.580521
 30
0.0
  0
SPLINE
  5
12c
100
AcDbEntity
  8
0
 62
5
100
AcDbSpline
 70
8
 71
3
 72
8
 73
4
 74
0
 40
0
 40
0
 40
0
 40
0
 40
1
 40
1
 40
1
 40
1
 10
53.075899
 20
33.580521
 30
0.0
 10
50.476439
 20
33.580521
 30
0.0
 10
48.369160
 20
35.687800
 30
0.0
 10
48.369160
 20
38.287261
 30
0.0
  0
SPLINE
  5
12d
100
AcDbEntity
  8
0
 62
5
100
AcDbSpline
 70
8
 71
3
 72
8
 73
4
 74
0
 40
0
 40
0
 40
0
 40
0
 40
1
 40
1
 40
1
 40
1
 10
48.369160
 20
38.287261
 30
0.0
 10
48.369160
 20
40.886721
 30
0.0
 10
50.476439
 20
42.994000
 30
0.0
 10
53.075899
 20
42.994000
 30
0.0
  0
SPLINE
  5
12e
100
AcDbEntity
  8
0
 62
5
100
AcDbSpline
 70
8
 71
3
 72
8
 73
4
 74
0
 40
0
 40
0
 40
0
 40
0
 40
1
 40
1
 40
1
 40
1
 10
53.075899
 20
42.994000
 30
0.0
 10
55.675360
 20
42.994000
 30
0.0
 10
57.782639
 20
40.886721
 30
0.0
 10
57.782639
 20
38.287261
 30
0.0
  0
LWPOLYLINE
  5
12f
100
AcDbEntity
  8
0
 62
5
100
AcDbPolyline
 90
1
 70
1
 10
46.123255
 20
38.287261
 30
0.0
  0
SPLINE
  5
130
100
AcDbEntity
  8
0
 62
5
100
AcDbSpline
 70
8
 71
3
 72
8
 73
4
 74
0
 40
0
 40
0
 40
0
 40
0
 40
1
 40
1
 40
1
 40
1
 10
109.854165
 20
45.472378
 30
0.0
 10
109.854165
 20
45.302650
 30
0.0
 10
109.763616
 20
45.145815
 30
0.0
 10
109.616627
 20
45.060951
 30
0.0
  0
SPLINE
  5
131
100
AcDbEntity
  8
0
 62
5
100
AcDbSpline
 70
8
 71
3
 72
8
 73
4
 74
0
 40
0
 40
0
 40
0
 40
0
 40
1
 40
1
 40
1
 40
1
 10
109.616627
 20
45.060951
 30
0.0
 10
109.469638
 20
44.976086
 30
0.0
 10
109.288540
 20
44.976086
 30
0.0
 10
109.141551
 20
45.060951
 30
0.0
  0
SPLINE
  5
132
100
AcDbEntity
  8
0
 62
5
100
AcDbSpline
 70
8
 71
3
 72
8
 73
4
 74
0
 40
0
 40
0
 40
0
 40
0
 40
1
 40
1
 40
1
 40
1
 10
109.141551
 20
45.060951
 30
0.0
 10
108.994562
 20
45.145815
 30
0.0
 10
108.904013
 20
45.302650
 30
0.0
 10
108.904013
 20
45.472378
 30
0.0
  0
SPLINE
  5
133
100
AcDbEntity
  8
0
 62
5
100
AcDbSpline
 70
8
 71
3
 72
8
 73
4
 74
0
 40
0
 40
0
 40
0
 40
0
 40
1
 40
1
 40
1
 40
1
 10
108.904013
 20
45.472378
 30
0.0
 10
108.904013
 20
45.642107
 30
0.0
 10
108.994562
 20
45.798942
 30
0.0
 10
109.141551
 20
45.883806
 30
0.0
  0
SPLINE
  5
134
100
AcDbEntity
  8
0
 62
5
100
AcDbSpline
 70
8
 71
3
 72
8
 73
4
 74
0
 40
0
 40
0
 40
0
 40
0
 40
1
 40
1
 40
1
 40
1
 10
109.141551
 20
45.883806
 30
0.0
 10
109.288540
 20
45.968671
 30
0.0
 10
109.469638
 20
45.968671
 30
0.0
 10
109.616627
 20
45.883806
 30
0.0
  0
SPLINE
  5
135
100
AcDbEntity
  8
0
 62
5
100
AcDbSpline
 70
8
 71
3
 72
8
 73
4
 74
0
 40
0
 40
0
 40
0
 40
0
 40
1
 40
1
 40
1
 40
1
 10
109.616627
 20
45.883806
 30
0.0
 10
109.763616
 20
45.798942
 30
0.0
 10
109.854165
 20
45.642107
 30
0.0
 10
109.854165
 20
45.472378
 30
0.0
  0
LWPOLYLINE
  5
136
100
AcDbEntity
  8
0
 62
5
100
AcDbPolyline
 90
1
 70
1
 10
57.782639
 20
38.287261
 30
0.0
  0
SPLINE
  5
137
100
AcDbEntity
  8
0
 62
5
100
AcDbSpline
 70
8
 71
3
 72
8
 73
4
 74
0
 40
0
 40
0
 40
0
 40
0
 40
1
 40
1
 40
1
 40
1
 10
109.846076
 20
35.777449
 30
0.0
 10
109.846076
 20
35.607721
 30
0.0
 10
109.755527
 20
35.450885
 30
0.0
 10
109.608538
 20
35.366021
 30
0.0
  0
SPLINE
  5
138
100
AcDbEntity
  8
0
 62
5
100
AcDbSpline
 70
8
 71
3
 72
8
 73
4
 74
0
 40
0
 40
0
 40
0
 40
0
 40
1
 40
1
 40
1
 40
1
 10
109.608538
 20
35.366021
 30
0.0
 10
109.461549
 20
35.281157
 30
0.0
 10
109.280451
 20
35.281157
 30
0.0
 10
109.133462
 20
35.366021
 30
0.0
  0
SPLINE
  5
139
100
AcDbEntity
  8
0
 62
5
100
AcDbSpline
 70
8
 71
3
 72
8
 73
4
 74
0
 40
0
 40
0
 40
0
 40
0
 40
1
 40
1
 40
1
 40
1
 10
109.133462
 20
35.366021
 30
0.0
 10
108.986473
 20
35.450885
 30
0.0
 10
108.895924
 20
35.607721
 30
0.0
 10
108.895924
 20
35.777449
 30
0.0
  0
SPLINE
  5
13a
100
AcDbEntity
  8
0
 62
5
100
AcDbSpline
 70
8
 71
3
 72
8
 73
4
 74
0
 40
0
 40
0
 40
0
 40
0
 40
1
 40
1
 40
1
 40
1
 10
108.895924
 20
35.777449
 30
0.0
 10
108.895924
 20
35.947178
 30
0.0
 10
108.986473
 20
36.104013
 30
0.0
 10
109.133462
 20
36.188877
 30
0.0
  0
SPLINE
  5
13b
100
AcDbEntity
  8
0
 62
5
100
AcDbSpline
 70
8
 71
3
 72
8
 73
4
 74
0
 40
0
 40
0
 40
0
 40
0
 40
1
 40
1
 40
1
 40
1
 10
109.133462
 20
36.188877
 30
0.0
 10
109.280451
 20
36.273741
 30
0.0
 10
109.461549
 20
36.273741
 30
0.0
 10
109.608538
 20
36.188877
 30
0.0
  0
SPLINE
  5
13c
100
AcDbEntity
  8
0
 62
5
100
AcDbSpline
 70
8
 71
3
 72
8
 73
4
 74
0
 40
0
 40
0
 40
0
 40
0
 40
1
 40
1
 40
1
 40
1
 10
109.608538
 20
36.188877
 30
0.0
 10
109.755527
 20
36.104013
 30
0.0
 10
109.846076
 20
35.947178
 30
0.0
 10
109.846076
 20
35.777449
 30
0.0
  0
LWPOLYLINE
  5
13d
100
AcDbEntity
  8
0
 62
5
100
AcDbPolyline
 90
1
 70
1
 10
109.854165
 20
45.472378
 30
0.0
  0
SPLINE
  5
13e
100
AcDbEntity
  8
0
 62
5
100
AcDbSpline
 70
8
 71
3
 72
8
 73
4
 74
0
 40
0
 40
0
 40
0
 40
0
 40
1
 40
1
 40
1
 40
1
 10
85.865721
 20
35.778394
 30
0.0
 10
85.865721
 20
35.608665
 30
0.0
 10
85.775172
 20
35.451830
 30
0.0
 10
85.628183
 20
35.366966
 30
0.0
  0
SPLINE
  5
13f
100
AcDbEntity
  8
0
 62
5
100
AcDbSpline
 70
8
 71
3
 72
8
 73
4
 74
0
 40
0
 40
0
 40
0
 40
0
 40
1
 40
1
 40
1
 40
1
 10
85.628183
 20
35.366966
 30
0.0
 10
85.481194
 20
35.282102
 30
0.0
 10
85.300096
 20
35.282102
 30
0.0
 10
85.153107
 20
35.366966
 30
0.0
  0
SPLINE
  5
140
100
AcDbEntity
  8
0
 62
5
100
AcDbSpline
 70
8
 71
3
 72
8
 73
4
 74
0
 40
0
 40
0
 40
0
 40
0
 40
1
 40
1
 40
1
 40
1
 10
85.153107
 20
35.366966
 30
0.0
 10
85.006118
 20
35.451830
 30
0.0
 10
84.915569
 20
35.608665
 30
0.0
 10
84.915569
 20
35.778394
 30
0.0
  0
SPLINE
  5
141
100
AcDbEntity
  8
0
 62
5
100
AcDbSpline
 70
8
 71
3
 72
8
 73
4
 74
0
 40
0
 40
0
 40
0
 40
0
 40
1
 40
1
 40
1
 40
1
 10
84.915569
 20
35.778394
 30
0.0
 10
84.915569
 20
35.948122
 30
0.0
 10
85.006118
 20
36.104958
 30
0.0
 10
85.153107
 20
36.189822
 30
0.0
  0
SPLINE
  5
142
100
AcDbEntity
  8
0
 62
5
100
AcDbSpline
 70
8
 71
3
 72
8
 73
4
 74
0
 40
0
 40
0
 40
0
 40
0
 40
1
 40
1
 40
1
 40
1
 10
85.153107
 20
36.189822
 30
0.0
 10
85.300096
 20
36.274686
 30
0.0
 10
85.481194
 20
36.274686
 30
0.0
 10
85.628183
 20
36.189822
 30
0.0
  0
SPLINE
  5
143
100
AcDbEntity
  8
0
 62
5
100
AcDbSpline
 70
8
 71
3
 72
8
 73
4
 74
0
 40
0
 40
0
 40
0
 40
0
 40
1
 40
1
 40
1
 40
1
 10
85.628183
 20
36.189822
 30
0.0
 10
85.775172
 20
36.104958
 30
0.0
 10
85.865721
 20
35.948122
 30
0.0
 10
85.865721
 20
35.778394
 30
0.0
  0
LWPOLYLINE
  5
144
100
AcDbEntity
  8
0
 62
5
100
AcDbPolyline
 90
1
 70
1
 10
109.846076
 20
35.777449
 30
0.0
  0
SPLINE
  5
145
100
AcDbEntity
  8
0
 62
5
100
AcDbSpline
 70
8
 71
3
 72
8
 73
4
 74
0
 40
0
 40
0
 40
0
 40
0
 40
1
 40
1
 40
1
 40
1
 10
85.864974
 20
45.463856
 30
0.0
 10
85.864974
 20
45.294128
 30
0.0
 10
85.774425
 20
45.137292
 30
0.0
 10
85.627436
 20
45.052428
 30
0.0
  0
SPLINE
  5
146
100
AcDbEntity
  8
0
 62
5
100
AcDbSpline
 70
8
 71
3
 72
8
 73
4
 74
0
 40
0
 40
0
 40
0
 40
0
 40
1
 40
1
 40
1
 40
1
 10
85.627436
 20
45.052428
 30
0.0
 10
85.480447
 20
44.967564
 30
0.0
 10
85.299349
 20
44.967564
 30
0.0
 10
85.152360
 20
45.052428
 30
0.0
  0
SPLINE
  5
147
100
AcDbEntity
  8
0
 62
5
100
AcDbSpline
 70
8
 71
3
 72
8
 73
4
 74
0
 40
0
 40
0
 40
0
 40
0
 40
1
 40
1
 40
1
 40
1
 10
85.152360
 20
45.052428
 30
0.0
 10
85.005371
 20
45.137292
 30
0.0
 10
84.914822
 20
45.294128
 30
0.0
 10
84.914822
 20
45.463856
 30
0.0
  0
SPLINE
  5
148
100
AcDbEntity
  8
0
 62
5
100
AcDbSpline
 70
8
 71
3
 72
8
 73
4
 74
0
 40
0
 40
0
 40
0
 40
0
 40
1
 40
1
 40
1
 40
1
 10
84.914822
 20
45.463856
 30
0.0
 10
84.914822
 20
45.726233
 30
0.0
 10
85.127521
 20
45.938932
 30
0.0
 10
85.389898
 20
45.938932
 30
0.0
  0
SPLINE
  5
149
100
AcDbEntity
  8
0
 62
5
100
AcDbSpline
 70
8
 71
3
 72
8
 73
4
 74
0
 40
0
 40
0
 40
0
 40
0
 40
1
 40
1
 40
1
 40
1
 10
85.389898
 20
45.938932
 30
0.0
 10
85.652275
 20
45.938932
 30
0.0
 10
85.864974
 20
45.726233
 30
0.0
 10
85.864974
 20
45.463856
 30
0.0
  0
LWPOLYLINE
  5
14a
100
AcDbEntity
  8
0
 62
5
100
AcDbPolyline
 90
1
 70
1
 10
85.865721
 20
35.778394
 30
0.0
  0
SPLINE
  5
14b
100
AcDbEntity
  8
0
 62
5
100
AcDbSpline
 70
8
 71
3
 72
8
 73
4
 74
0
 40
0
 40
0
 40
0
 40
0
 40
1
 40
1
 40
1
 40
1
 10
91.587422
 20
32.460504
 30
0.0
 10
91.587422
 20
32.148896
 30
0.0
 10
91.421181
 20
31.860958
 30
0.0
 10
91.151320
 20
31.705154
 30
0.0
  0
SPLINE
  5
14c
100
AcDbEntity
  8
0
 62
5
100
AcDbSpline
 70
8
 71
3
 72
8
 73
4
 74
0
 40
0
 40
0
 40
0
 40
0
 40
1
 40
1
 40
1
 40
1
 10
91.151320
 20
31.705154
 30
0.0
 10
90.881459
 20
31.549350
 30
0.0
 10
90.548977
 20
31.549350
 30
0.0
 10
90.279116
 20
31.705154
 30
0.0
  0
SPLINE
  5
14d
100
AcDbEntity
  8
0
 62
5
100
AcDbSpline
 70
8
 71
3
 72
8
 73
4
 74
0
 40
0
 40
0
 40
0
 40
0
 40
1
 40
1
 40
1
 40
1
 10
90.279116
 20
31.705154
 30
0.0
 10
90.009256
 20
31.860958
 30
0.0
 10
89.843015
 20
32.148896
 30
0.0
 10
89.843015
 20
32.460504
 30
0.0
  0
SPLINE
  5
14e
100
AcDbEntity
  8
0
 62
5
100
AcDbSpline
 70
8
 71
3
 72
8
 73
4
 74
0
 40
0
 40
0
 40
0
 40
0
 40
1
 40
1
 40
1
 40
1
 10
89.843015
 20
32.460504
 30
0.0
 10
89.843015
 20
32.772112
 30
0.0
 10
90.009256
 20
33.060050
 30
0.0
 10
90.279116
 20
33.215854
 30
0.0
  0
SPLINE
  5
14f
100
AcDbEntity
  8
0
 62
5
100
AcDbSpline
 70
8
 71
3
 72
8
 73
4
 74
0
 40
0
 40
0
 40
0
 40
0
 40
1
 40
1
 40
1
 40
1
 10
90.279116
 20
33.215854
 30
0.0
 10
90.548977
 20
33.371659
 30
0.0
 10
90.881459
 20
33.371659
 30
0.0
 10
91.151320
 20
33.215854
 30
0.0
  0
SPLINE
  5
150
100
AcDbEntity
  8
0
 62
5
100
AcDbSpline
 70
8
 71
3
 72
8
 73
4
 74
0
 40
0
 40
0
 40
0
 40
0
 40
1
 40
1
 40
1
 40
1
 10
91.151320
 20
33.215854
 30
0.0
 10
91.421181
 20
33.060050
 30
0.0
 10
91.587422
 20
32.772112
 30
0.0
 10
91.587422
 20
32.460504
 30
0.0
  0
LWPOLYLINE
  5
151
100
AcDbEntity
  8
0
 62
5
100
AcDbPolyline
 90
1
 70
1
 10
85.864974
 20
45.463856
 30
0.0
  0
SPLINE
  5
152
100
AcDbEntity
  8
0
 62
5
100
AcDbSpline
 70
8
 71
3
 72
8
 73
4
 74
0
 40
0
 40
0
 40
0
 40
0
 40
1
 40
1
 40
1
 40
1
 10
89.096813
 20
31.371124
 30
0.0
 10
89.096813
 20
31.059516
 30
0.0
 10
88.930572
 20
30.771578
 30
0.0
 10
88.660712
 20
30.615774
 30
0.0
  0
SPLINE
  5
153
100
AcDbEntity
  8
0
 62
5
100
AcDbSpline
 70
8
 71
3
 72
8
 73
4
 74
0
 40
0
 40
0
 40
0
 40
0
 40
1
 40
1
 40
1
 40
1
 10
88.660712
 20
30.615774
 30
0.0
 10
88.390851
 20
30.459970
 30
0.0
 10
88.058369
 20
30.459970
 30
0.0
 10
87.788508
 20
30.615774
 30
0.0
  0
SPLINE
  5
154
100
AcDbEntity
  8
0
 62
5
100
AcDbSpline
 70
8
 71
3
 72
8
 73
4
 74
0
 40
0
 40
0
 40
0
 40
0
 40
1
 40
1
 40
1
 40
1
 10
87.788508
 20
30.615774
 30
0.0
 10
87.518648
 20
30.771578
 30
0.0
 10
87.352407
 20
31.059516
 30
0.0
 10
87.352407
 20
31.371124
 30
0.0
  0
SPLINE
  5
155
100
AcDbEntity
  8
0
 62
5
100
AcDbSpline
 70
8
 71
3
 72
8
 73
4
 74
0
 40
0
 40
0
 40
0
 40
0
 40
1
 40
1
 40
1
 40
1
 10
87.352407
 20
31.371124
 30
0.0
 10
87.352407
 20
31.682732
 30
0.0
 10
87.518648
 20
31.970670
 30
0.0
 10
87.788508
 20
32.126474
 30
0.0
  0
SPLINE
  5
156
100
AcDbEntity
  8
0
 62
5
100
AcDbSpline
 70
8
 71
3
 72
8
 73
4
 74
0
 40
0
 40
0
 40
0
 40
0
 40
1
 40
1
 40
1
 40
1
 10
87.788508
 20
32.126474
 30
0.0
 10
88.058369
 20
32.282279
 30
0.0
 10
88.390851
 20
32.282279
 30
0.0
 10
88.660712
 20
32.126474
 30
0.0
  0
SPLINE
  5
157
100
AcDbEntity
  8
0
 62
5
100
AcDbSpline
 70
8
 71
3
 72
8
 73
4
 74
0
 40
0
 40
0
 40
0
 40
0
 40
1
 40
1
 40
1
 40
1
 10
88.660712
 20
32.126474
 30
0.0
 10
88.930572
 20
31.970670
 30
0.0
 10
89.096813
 20
31.682732
 30
0.0
 10
89.096813
 20
31.371124
 30
0.0
  0
LWPOLYLINE
  5
158
100
AcDbEntity
  8
0
 62
5
100
AcDbPolyline
 90
1
 70
1
 10
91.587422
 20
32.460504
 30
0.0
  0
SPLINE
  5
159
100
AcDbEntity
  8
0
 62
5
100
AcDbSpline
 70
8
 71
3
 72
8
 73
4
 74
0
 40
0
 40
0
 40
0
 40
0
 40
1
 40
1
 40
1
 40
1
 10
89.096203
 20
33.426528
 30
0.0
 10
89.096203
 20
33.114920
 30
0.0
 10
88.929962
 20
32.826982
 30
0.0
 10
88.660101
 20
32.671178
 30
0.0
  0
SPLINE
  5
15a
100
AcDbEntity
  8
0
 62
5
100
AcDbSpline
 70
8
 71
3
 72
8
 73
4
 74
0
 40
0
 40
0
 40
0
 40
0
 40
1
 40
1
 40
1
 40
1
 10
88.660101
 20
32.671178
 30
0.0
 10
88.390240
 20
32.515374
 30
0.0
 10
88.057758
 20
32.515374
 30
0.0
 10
87.787898
 20
32.671178
 30
0.0
  0
SPLINE
  5
15b
100
AcDbEntity
  8
0
 62
5
100
AcDbSpline
 70
8
 71
3
 72
8
 73
4
 74
0
 40
0
 40
0
 40
0
 40
0
 40
1
 40
1
 40
1
 40
1
 10
87.787898
 20
32.671178
 30
0.0
 10
87.518037
 20
32.826982
 30
0.0
 10
87.351796
 20
33.114920
 30
0.0
 10
87.351796
 20
33.426528
 30
0.0
  0
SPLINE
  5
15c
100
AcDbEntity
  8
0
 62
5
100
AcDbSpline
 70
8
 71
3
 72
8
 73
4
 74
0
 40
0
 40
0
 40
0
 40
0
 40
1
 40
1
 40
1
 40
1
 10
87.351796
 20
33.426528
 30
0.0
 10
87.351796
 20
33.738136
 30
0.0
 10
87.518037
 20
34.026074
 30
0.0
 10
87.787898
 20
34.181878
 30
0.0
  0
SPLINE
  5
15d
100
AcDbEntity
  8
0
 62
5
100
AcDbSpline
 70
8
 71
3
 72
8
 73
4
 74
0
 40
0
 40
0
 40
0
 40
0
 40
1
 40
1
 40
1
 40
1
 10
87.787898
 20
34.181878
 30
0.0
 10
88.057758
 20
34.337682
 30
0.0
 10
88.390240
 20
34.337682
 30
0.0
 10
88.660101
 20
34.181878
 30
0.0
  0
SPLINE
  5
15e
100
AcDbEntity
  8
0
 62
5
100
AcDbSpline
 70
8
 71
3
 72
8
 73
4
 74
0
 40
0
 40
0
 40
0
 40
0
 40
1
 40
1
 40
1
 40
1
 10
88.660101
 20
34.181878
 30
0.0
 10
88.929962
 20
34.026074
 30
0.0
 10
89.096203
 20
33.738136
 30
0.0
 10
89.096203
 20
33.426528
 30
0.0
  0
LWPOLYLINE
  5
15f
100
AcDbEntity
  8
0
 62
5
100
AcDbPolyline
 90
1
 70
1
 10
89.096813
 20
31.371124
 30
0.0
  0
SPLINE
  5
160
100
AcDbEntity
  8
0
 62
5
100
AcDbSpline
 70
8
 71
3
 72
8
 73
4
 74
0
 40
0
 40
0
 40
0
 40
0
 40
1
 40
1
 40
1
 40
1
 10
86.676115
 20
32.459091
 30
0.0
 10
86.676115
 20
32.147482
 30
0.0
 10
86.509874
 20
31.859545
 30
0.0
 10
86.240014
 20
31.703740
 30
0.0
  0
SPLINE
  5
161
100
AcDbEntity
  8
0
 62
5
100
AcDbSpline
 70
8
 71
3
 72
8
 73
4
 74
0
 40
0
 40
0
 40
0
 40
0
 40
1
 40
1
 40
1
 40
1
 10
86.240014
 20
31.703740
 30
0.0
 10
85.970153
 20
31.547936
 30
0.0
 10
85.637671
 20
31.547936
 30
0.0
 10
85.367810
 20
31.703740
 30
0.0
  0
SPLINE
  5
162
100
AcDbEntity
  8
0
 62
5
100
AcDbSpline
 70
8
 71
3
 72
8
 73
4
 74
0
 40
0
 40
0
 40
0
 40
0
 40
1
 40
1
 40
1
 40
1
 10
85.367810
 20
31.703740
 30
0.0
 10
85.097950
 20
31.859545
 30
0.0
 10
84.931709
 20
32.147482
 30
0.0
 10
84.931709
 20
32.459091
 30
0.0
  0
SPLINE
  5
163
100
AcDbEntity
  8
0
 62
5
100
AcDbSpline
 70
8
 71
3
 72
8
 73
4
 74
0
 40
0
 40
0
 40
0
 40
0
 40
1
 40
1
 40
1
 40
1
 10
84.931709
 20
32.459091
 30
0.0
 10
84.931709
 20
32.770699
 30
0.0
 10
85.097950
 20
33.058637
 30
0.0
 10
85.367810
 20
33.214441
 30
0.0
  0
SPLINE
  5
164
100
AcDbEntity
  8
0
 62
5
100
AcDbSpline
 70
8
 71
3
 72
8
 73
4
 74
0
 40
0
 40
0
 40
0
 40
0
 40
1
 40
1
 40
1
 40
1
 10
85.367810
 20
33.214441
 30
0.0
 10
85.637671
 20
33.370245
 30
0.0
 10
85.970153
 20
33.370245
 30
0.0
 10
86.240014
 20
33.214441
 30
0.0
  0
SPLINE
  5
165
100
AcDbEntity
  8
0
 62
5
100
AcDbSpline
 70
8
 71
3
 72
8
 73
4
 74
0
 40
0
 40
0
 40
0
 40
0
 40
1
 40
1
 40
1
 40
1
 10
86.240014
 20
33.214441
 30
0.0
 10
86.509874
 20
33.058637
 30
0.0
 10
86.676115
 20
32.770699
 30
0.0
 10
86.676115
 20
32.459091
 30
0.0
  0
LWPOLYLINE
  5
166
100
AcDbEntity
  8
0
 62
5
100
AcDbPolyline
 90
1
 70
1
 10
89.096203
 20
33.426528
 30
0.0
  0
SPLINE
  5
167
100
AcDbEntity
  8
0
 62
5
100
AcDbSpline
 70
8
 71
3
 72
8
 73
4
 74
0
 40
0
 40
0
 40
0
 40
0
 40
1
 40
1
 40
1
 40
1
 10
94.336950
 20
33.426700
 30
0.0
 10
94.336950
 20
33.115092
 30
0.0
 10
94.170709
 20
32.827154
 30
0.0
 10
93.900848
 20
32.671350
 30
0.0
  0
SPLINE
  5
168
100
AcDbEntity
  8
0
 62
5
100
AcDbSpline
 70
8
 71
3
 72
8
 73
4
 74
0
 40
0
 40
0
 40
0
 40
0
 40
1
 40
1
 40
1
 40
1
 10
93.900848
 20
32.671350
 30
0.0
 10
93.630987
 20
32.515546
 30
0.0
 10
93.298505
 20
32.515546
 30
0.0
 10
93.028645
 20
32.671350
 30
0.0
  0
SPLINE
  5
169
100
AcDbEntity
  8
0
 62
5
100
AcDbSpline
 70
8
 71
3
 72
8
 73
4
 74
0
 40
0
 40
0
 40
0
 40
0
 40
1
 40
1
 40
1
 40
1
 10
93.028645
 20
32.671350
 30
0.0
 10
92.758784
 20
32.827154
 30
0.0
 10
92.592543
 20
33.115092
 30
0.0
 10
92.592543
 20
33.426700
 30
0.0
  0
SPLINE
  5
16a
100
AcDbEntity
  8
0
 62
5
100
AcDbSpline
 70
8
 71
3
 72
8
 73
4
 74
0
 40
0
 40
0
 40
0
 40
0
 40
1
 40
1
 40
1
 40
1
 10
92.592543
 20
33.426700
 30
0.0
 10
92.592543
 20
33.738309
 30
0.0
 10
92.758784
 20
34.026246
 30
0.0
 10
93.028645
 20
34.182051
 30
0.0
  0
SPLINE
  5
16b
100
AcDbEntity
  8
0
 62
5
100
AcDbSpline
 70
8
 71
3
 72
8
 73
4
 74
0
 40
0
 40
0
 40
0
 40
0
 40
1
 40
1
 40
1
 40
1
 10
93.028645
 20
34.182051
 30
0.0
 10
93.298505
 20
34.337855
 30
0.0
 10
93.630987
 20
34.337855
 30
0.0
 10
93.900848
 20
34.182051
 30
0.0
  0
SPLINE
  5
16c
100
AcDbEntity
  8
0
 62
5
100
AcDbSpline
 70
8
 71
3
 72
8
 73
4
 74
0
 40
0
 40
0
 40
0
 40
0
 40
1
 40
1
 40
1
 40
1
 10
93.900848
 20
34.182051
 30
0.0
 10
94.170709
 20
34.026246
 30
0.0
 10
94.336950
 20
33.738309
 30
0.0
 10
94.336950
 20
33.426700
 30
0.0
  0
LWPOLYLINE
  5
16d
100
AcDbEntity
  8
0
 62
5
100
AcDbPolyline
 90
1
 70
1
 10
86.676115
 20
32.459091
 30
0.0
  0
SPLINE
  5
16e
100
AcDbEntity
  8
0
 62
5
100
AcDbSpline
 70
8
 71
3
 72
8
 73
4
 74
0
 40
0
 40
0
 40
0
 40
0
 40
1
 40
1
 40
1
 40
1
 10
109.399788
 20
31.169790
 30
0.0
 10
109.399787
 20
30.688085
 30
0.0
 10
109.009289
 20
30.297586
 30
0.0
 10
108.527584
 20
30.297586
 30
0.0
  0
SPLINE
  5
16f
100
AcDbEntity
  8
0
 62
5
100
AcDbSpline
 70
8
 71
3
 72
8
 73
4
 74
0
 40
0
 40
0
 40
0
 40
0
 40
1
 40
1
 40
1
 40
1
 10
108.527584
 20
30.297586
 30
0.0
 10
108.045880
 20
30.297586
 30
0.0
 10
107.655381
 20
30.688085
 30
0.0
 10
107.655381
 20
31.169790
 30
0.0
  0
SPLINE
  5
170
100
AcDbEntity
  8
0
 62
5
100
AcDbSpline
 70
8
 71
3
 72
8
 73
4
 74
0
 40
0
 40
0
 40
0
 40
0
 40
1
 40
1
 40
1
 40
1
 10
107.655381
 20
31.169790
 30
0.0
 10
107.655381
 20
31.651494
 30
0.0
 10
108.045880
 20
32.041993
 30
0.0
 10
108.527584
 20
32.041993
 30
0.0
  0
SPLINE
  5
171
100
AcDbEntity
  8
0
 62
5
100
AcDbSpline
 70
8
 71
3
 72
8
 73
4
 74
0
 40
0
 40
0
 40
0
 40
0
 40
1
 40
1
 40
1
 40
1
 10
108.527584
 20
32.041993
 30
0.0
 10
109.009289
 20
32.041993
 30
0.0
 10
109.399787
 20
31.651494
 30
0.0
 10
109.399788
 20
31.169790
 30
0.0
  0
LWPOLYLINE
  5
172
100
AcDbEntity
  8
0
 62
5
100
AcDbPolyline
 90
1
 70
1
 10
94.336950
 20
33.426700
 30
0.0
  0
SPLINE
  5
173
100
AcDbEntity
  8
0
 62
5
100
AcDbSpline
 70
8
 71
3
 72
8
 73
4
 74
0
 40
0
 40
0
 40
0
 40
0
 40
1
 40
1
 40
1
 40
1
 10
26.707674
 20
43.678329
 30
0.0
 10
26.707674
 20
43.492142
 30
0.0
 10
26.608345
 20
43.320099
 30
0.0
 10
26.447102
 20
43.227006
 30
0.0
  0
SPLINE
  5
174
100
AcDbEntity
  8
0
 62
5
100
AcDbSpline
 70
8
 71
3
 72
8
 73
4
 74
0
 40
0
 40
0
 40
0
 40
0
 40
1
 40
1
 40
1
 40
1
 10
26.447102
 20
43.227006
 30
0.0
 10
26.285860
 20
43.133913
 30
0.0
 10
26.087202
 20
43.133913
 30
0.0
 10
25.925959
 20
43.227006
 30
0.0
  0
SPLINE
  5
175
100
AcDbEntity
  8
0
 62
5
100
AcDbSpline
 70
8
 71
3
 72
8
 73
4
 74
0
 40
0
 40
0
 40
0
 40
0
 40
1
 40
1
 40
1
 40
1
 10
25.925959
 20
43.227006
 30
0.0
 10
25.764717
 20
43.320099
 30
0.0
 10
25.665388
 20
43.492142
 30
0.0
 10
25.665388
 20
43.678329
 30
0.0
  0
SPLINE
  5
176
100
AcDbEntity
  8
0
 62
5
100
AcDbSpline
 70
8
 71
3
 72
8
 73
4
 74
0
 40
0
 40
0
 40
0
 40
0
 40
1
 40
1
 40
1
 40
1
 10
25.665388
 20
43.678329
 30
0.0
 10
25.665388
 20
43.864515
 30
0.0
 10
25.764717
 20
44.036559
 30
0.0
 10
25.925959
 20
44.129652
 30
0.0
  0
SPLINE
  5
177
100
AcDbEntity
  8
0
 62
5
100
AcDbSpline
 70
8
 71
3
 72
8
 73
4
 74
0
 40
0
 40
0
 40
0
 40
0
 40
1
 40
1
 40
1
 40
1
 10
25.925959
 20
44.129652
 30
0.0
 10
26.087202
 20
44.222745
 30
0.0
 10
26.285860
 20
44.222745
 30
0.0
 10
26.447102
 20
44.129652
 30
0.0
  0
SPLINE
  5
178
100
AcDbEntity
  8
0
 62
5
100
AcDbSpline
 70
8
 71
3
 72
8
 73
4
 74
0
 40
0
 40
0
 40
0
 40
0
 40
1
 40
1
 40
1
 40
1
 10
26.447102
 20
44.129652
 30
0.0
 10
26.608345
 20
44.036559
 30
0.0
 10
26.707674
 20
43.864515
 30
0.0
 10
26.707674
 20
43.678329
 30
0.0
  0
LWPOLYLINE
  5
179
100
AcDbEntity
  8
0
 62
5
100
AcDbPolyline
 90
1
 70
1
 10
109.399788
 20
31.169790
 30
0.0
  0
SPLINE
  5
17a
100
AcDbEntity
  8
0
 62
5
100
AcDbSpline
 70
8
 71
3
 72
8
 73
4
 74
0
 40
0
 40
0
 40
0
 40
0
 40
1
 40
1
 40
1
 40
1
 10
26.707674
 20
32.896192
 30
0.0
 10
26.707674
 20
32.710005
 30
0.0
 10
26.608345
 20
32.537962
 30
0.0
 10
26.447102
 20
32.444869
 30
0.0
  0
SPLINE
  5
17b
100
AcDbEntity
  8
0
 62
5
100
AcDbSpline
 70
8
 71
3
 72
8
 73
4
 74
0
 40
0
 40
0
 40
0
 40
0
 40
1
 40
1
 40
1
 40
1
 10
26.447102
 20
32.444869
 30
0.0
 10
26.285860
 20
32.351776
 30
0.0
 10
26.087202
 20
32.351776
 30
0.0
 10
25.925959
 20
32.444869
 30
0.0
  0
SPLINE
  5
17c
100
AcDbEntity
  8
0
 62
5
100
AcDbSpline
 70
8
 71
3
 72
8
 73
4
 74
0
 40
0
 40
0
 40
0
 40
0
 40
1
 40
1
 40
1
 40
1
 10
25.925959
 20
32.444869
 30
0.0
 10
25.764717
 20
32.537962
 30
0.0
 10
25.665388
 20
32.710005
 30
0.0
 10
25.665388
 20
32.896192
 30
0.0
  0
SPLINE
  5
17d
100
AcDbEntity
  8
0
 62
5
100
AcDbSpline
 70
8
 71
3
 72
8
 73
4
 74
0
 40
0
 40
0
 40
0
 40
0
 40
1
 40
1
 40
1
 40
1
 10
25.665388
 20
32.896192
 30
0.0
 10
25.665388
 20
33.082378
 30
0.0
 10
25.764717
 20
33.254421
 30
0.0
 10
25.925959
 20
33.347515
 30
0.0
  0
SPLINE
  5
17e
100
AcDbEntity
  8
0
 62
5
100
AcDbSpline
 70
8
 71
3
 72
8
 73
4
 74
0
 40
0
 40
0
 40
0
 40
0
 40
1
 40
1
 40
1
 40
1
 10
25.925959
 20
33.347515
 30
0.0
 10
26.087202
 20
33.440608
 30
0.0
 10
26.285860
 20
33.440608
 30
0.0
 10
26.447102
 20
33.347515
 30
0.0
  0
SPLINE
  5
17f
100
AcDbEntity
  8
0
 62
5
100
AcDbSpline
 70
8
 71
3
 72
8
 73
4
 74
0
 40
0
 40
0
 40
0
 40
0
 40
1
 40
1
 40
1
 40
1
 10
26.447102
 20
33.347515
 30
0.0
 10
26.608345
 20
33.254421
 30
0.0
 10
26.707674
 20
33.082378
 30
0.0
 10
26.707674
 20
32.896192
 30
0.0
  0
LWPOLYLINE
  5
180
100
AcDbEntity
  8
0
 62
5
100
AcDbPolyline
 90
1
 70
1
 10
26.707674
 20
43.678329
 30
0.0
  0
SPLINE
  5
181
100
AcDbEntity
  8
0
 62
5
100
AcDbSpline
 70
8
 71
3
 72
8
 73
4
 74
0
 40
0
 40
0
 40
0
 40
0
 40
1
 40
1
 40
1
 40
1
 10
15.048287
 20
43.678329
 30
0.0
 10
15.048287
 20
43.492142
 30
0.0
 10
14.948958
 20
43.320099
 30
0.0
 10
14.787716
 20
43.227006
 30
0.0
  0
SPLINE
  5
182
100
AcDbEntity
  8
0
 62
5
100
AcDbSpline
 70
8
 71
3
 72
8
 73
4
 74
0
 40
0
 40
0
 40
0
 40
0
 40
1
 40
1
 40
1
 40
1
 10
14.787716
 20
43.227006
 30
0.0
 10
14.626474
 20
43.133913
 30
0.0
 10
14.427815
 20
43.133913
 30
0.0
 10
14.266573
 20
43.227006
 30
0.0
  0
SPLINE
  5
183
100
AcDbEntity
  8
0
 62
5
100
AcDbSpline
 70
8
 71
3
 72
8
 73
4
 74
0
 40
0
 40
0
 40
0
 40
0
 40
1
 40
1
 40
1
 40
1
 10
14.266573
 20
43.227006
 30
0.0
 10
14.105331
 20
43.320099
 30
0.0
 10
14.006002
 20
43.492142
 30
0.0
 10
14.006002
 20
43.678329
 30
0.0
  0
SPLINE
  5
184
100
AcDbEntity
  8
0
 62
5
100
AcDbSpline
 70
8
 71
3
 72
8
 73
4
 74
0
 40
0
 40
0
 40
0
 40
0
 40
1
 40
1
 40
1
 40
1
 10
14.006002
 20
43.678329
 30
0.0
 10
14.006002
 20
43.864515
 30
0.0
 10
14.105331
 20
44.036559
 30
0.0
 10
14.266573
 20
44.129652
 30
0.0
  0
SPLINE
  5
185
100
AcDbEntity
  8
0
 62
5
100
AcDbSpline
 70
8
 71
3
 72
8
 73
4
 74
0
 40
0
 40
0
 40
0
 40
0
 40
1
 40
1
 40
1
 40
1
 10
14.266573
 20
44.129652
 30
0.0
 10
14.427815
 20
44.222745
 30
0.0
 10
14.626474
 20
44.222745
 30
0.0
 10
14.787716
 20
44.129652
 30
0.0
  0
SPLINE
  5
186
100
AcDbEntity
  8
0
 62
5
100
AcDbSpline
 70
8
 71
3
 72
8
 73
4
 74
0
 40
0
 40
0
 40
0
 40
0
 40
1
 40
1
 40
1
 40
1
 10
14.787716
 20
44.129652
 30
0.0
 10
14.948958
 20
44.036559
 30
0.0
 10
15.048287
 20
43.864515
 30
0.0
 10
15.048287
 20
43.678329
 30
0.0
  0
LWPOLYLINE
  5
187
100
AcDbEntity
  8
0
 62
5
100
AcDbPolyline
 90
1
 70
1
 10
26.707674
 20
32.896192
 30
0.0
  0
SPLINE
  5
188
100
AcDbEntity
  8
0
 62
5
100
AcDbSpline
 70
8
 71
3
 72
8
 73
4
 74
0
 40
0
 40
0
 40
0
 40
0
 40
1
 40
1
 40
1
 40
1
 10
15.048287
 20
32.896192
 30
0.0
 10
15.048287
 20
32.710005
 30
0.0
 10
14.948958
 20
32.537962
 30
0.0
 10
14.787716
 20
32.444869
 30
0.0
  0
SPLINE
  5
189
100
AcDbEntity
  8
0
 62
5
100
AcDbSpline
 70
8
 71
3
 72
8
 73
4
 74
0
 40
0
 40
0
 40
0
 40
0
 40
1
 40
1
 40
1
 40
1
 10
14.787716
 20
32.444869
 30
0.0
 10
14.626474
 20
32.351776
 30
0.0
 10
14.427815
 20
32.351776
 30
0.0
 10
14.266573
 20
32.444869
 30
0.0
  0
SPLINE
  5
18a
100
AcDbEntity
  8
0
 62
5
100
AcDbSpline
 70
8
 71
3
 72
8
 73
4
 74
0
 40
0
 40
0
 40
0
 40
0
 40
1
 40
1
 40
1
 40
1
 10
14.266573
 20
32.444869
 30
0.0
 10
14.105331
 20
32.537962
 30
0.0
 10
14.006002
 20
32.710005
 30
0.0
 10
14.006002
 20
32.896192
 30
0.0
  0
SPLINE
  5
18b
100
AcDbEntity
  8
0
 62
5
100
AcDbSpline
 70
8
 71
3
 72
8
 73
4
 74
0
 40
0
 40
0
 40
0
 40
0
 40
1
 40
1
 40
1
 40
1
 10
14.006002
 20
32.896192
 30
0.0
 10
14.006002
 20
33.082378
 30
0.0
 10
14.105331
 20
33.254421
 30
0.0
 10
14.266573
 20
33.347515
 30
0.0
  0
SPLINE
  5
18c
100
AcDbEntity
  8
0
 62
5
100
AcDbSpline
 70
8
 71
3
 72
8
 73
4
 74
0
 40
0
 40
0
 40
0
 40
0
 40
1
 40
1
 40
1
 40
1
 10
14.266573
 20
33.347515
 30
0.0
 10
14.427815
 20
33.440608
 30
0.0
 10
14.626474
 20
33.440608
 30
0.0
 10
14.787716
 20
33.347515
 30
0.0
  0
SPLINE
  5
18d
100
AcDbEntity
  8
0
 62
5
100
AcDbSpline
 70
8
 71
3
 72
8
 73
4
 74
0
 40
0
 40
0
 40
0
 40
0
 40
1
 40
1
 40
1
 40
1
 10
14.787716
 20
33.347515
 30
0.0
 10
14.948958
 20
33.254421
 30
0.0
 10
15.048287
 20
33.082378
 30
0.0
 10
15.048287
 20
32.896192
 30
0.0
  0
LWPOLYLINE
  5
18e
100
AcDbEntity
  8
0
 62
5
100
AcDbPolyline
 90
1
 70
1
 10
15.048287
 20
43.678329
 30
0.0
  0
SPLINE
  5
18f
100
AcDbEntity
  8
0
 62
5
100
AcDbSpline
 70
8
 71
3
 72
8
 73
4
 74
0
 40
0
 40
0
 40
0
 40
0
 40
1
 40
1
 40
1
 40
1
 10
41.937659
 20
43.678329
 30
0.0
 10
41.937659
 20
43.492142
 30
0.0
 10
41.838330
 20
43.320099
 30
0.0
 10
41.677087
 20
43.227006
 30
0.0
  0
SPLINE
  5
190
100
AcDbEntity
  8
0
 62
5
100
AcDbSpline
 70
8
 71
3
 72
8
 73
4
 74
0
 40
0
 40
0
 40
0
 40
0
 40
1
 40
1
 40
1
 40
1
 10
41.677087
 20
43.227006
 30
0.0
 10
41.515845
 20
43.133913
 30
0.0
 10
41.317187
 20
43.133913
 30
0.0
 10
41.155945
 20
43.227006
 30
0.0
  0
SPLINE
  5
191
100
AcDbEntity
  8
0
 62
5
100
AcDbSpline
 70
8
 71
3
 72
8
 73
4
 74
0
 40
0
 40
0
 40
0
 40
0
 40
1
 40
1
 40
1
 40
1
 10
41.155945
 20
43.227006
 30
0.0
 10
40.994702
 20
43.320099
 30
0.0
 10
40.895373
 20
43.492142
 30
0.0
 10
40.895373
 20
43.678329
 30
0.0
  0
SPLINE
  5
192
100
AcDbEntity
  8
0
 62
5
100
AcDbSpline
 70
8
 71
3
 72
8
 73
4
 74
0
 40
0
 40
0
 40
0
 40
0
 40
1
 40
1
 40
1
 40
1
 10
40.895373
 20
43.678329
 30
0.0
 10
40.895373
 20
43.864515
 30
0.0
 10
40.994702
 20
44.036559
 30
0.0
 10
41.155945
 20
44.129652
 30
0.0
  0
SPLINE
  5
193
100
AcDbEntity
  8
0
 62
5
100
AcDbSpline
 70
8
 71
3
 72
8
 73
4
 74
0
 40
0
 40
0
 40
0
 40
0
 40
1
 40
1
 40
1
 40
1
 10
41.155945
 20
44.129652
 30
0.0
 10
41.317187
 20
44.222745
 30
0.0
 10
41.515845
 20
44.222745
 30
0.0
 10
41.677087
 20
44.129652
 30
0.0
  0
SPLINE
  5
194
100
AcDbEntity
  8
0
 62
5
100
AcDbSpline
 70
8
 71
3
 72
8
 73
4
 74
0
 40
0
 40
0
 40
0
 40
0
 40
1
 40
1
 40
1
 40
1
 10
41.677087
 20
44.129652
 30
0.0
 10
41.838330
 20
44.036559
 30
0.0
 10
41.937659
 20
43.864515
 30
0.0
 10
41.937659
 20
43.678329
 30
0.0
  0
LWPOLYLINE
  5
195
100
AcDbEntity
  8
0
 62
5
100
AcDbPolyline
 90
1
 70
1
 10
15.048287
 20
32.896192
 30
0.0
  0
SPLINE
  5
196
100
AcDbEntity
  8
0
 62
5
100
AcDbSpline
 70
8
 71
3
 72
8
 73
4
 74
0
 40
0
 40
0
 40
0
 40
0
 40
1
 40
1
 40
1
 40
1
 10
41.937659
 20
32.896192
 30
0.0
 10
41.937659
 20
32.710005
 30
0.0
 10
41.838330
 20
32.537962
 30
0.0
 10
41.677087
 20
32.444869
 30
0.0
  0
SPLINE
  5
197
100
AcDbEntity
  8
0
 62
5
100
AcDbSpline
 70
8
 71
3
 72
8
 73
4
 74
0
 40
0
 40
0
 40
0
 40
0
 40
1
 40
1
 40
1
 40
1
 10
41.677087
 20
32.444869
 30
0.0
 10
41.515845
 20
32.351776
 30
0.0
 10
41.317187
 20
32.351776
 30
0.0
 10
41.155945
 20
32.444869
 30
0.0
  0
SPLINE
  5
198
100
AcDbEntity
  8
0
 62
5
100
AcDbSpline
 70
8
 71
3
 72
8
 73
4
 74
0
 40
0
 40
0
 40
0
 40
0
 40
1
 40
1
 40
1
 40
1
 10
41.155945
 20
32.444869
 30
0.0
 10
40.994702
 20
32.537962
 30
0.0
 10
40.895373
 20
32.710005
 30
0.0
 10
40.895373
 20
32.896192
 30
0.0
  0
SPLINE
  5
199
100
AcDbEntity
  8
0
 62
5
100
AcDbSpline
 70
8
 71
3
 72
8
 73
4
 74
0
 40
0
 40
0
 40
0
 40
0
 40
1
 40
1
 40
1
 40
1
 10
40.895373
 20
32.896192
 30
0.0
 10
40.895373
 20
33.082378
 30
0.0
 10
40.994702
 20
33.254421
 30
0.0
 10
41.155945
 20
33.347515
 30
0.0
  0
SPLINE
  5
19a
100
AcDbEntity
  8
0
 62
5
100
AcDbSpline
 70
8
 71
3
 72
8
 73
4
 74
0
 40
0
 40
0
 40
0
 40
0
 40
1
 40
1
 40
1
 40
1
 10
41.155945
 20
33.347515
 30
0.0
 10
41.317187
 20
33.440608
 30
0.0
 10
41.515845
 20
33.440608
 30
0.0
 10
41.677087
 20
33.347515
 30
0.0
  0
SPLINE
  5
19b
100
AcDbEntity
  8
0
 62
5
100
AcDbSpline
 70
8
 71
3
 72
8
 73
4
 74
0
 40
0
 40
0
 40
0
 40
0
 40
1
 40
1
 40
1
 40
1
 10
41.677087
 20
33.347515
 30
0.0
 10
41.838330
 20
33.254421
 30
0.0
 10
41.937659
 20
33.082378
 30
0.0
 10
41.937659
 20
32.896192
 30
0.0
  0
LWPOLYLINE
  5
19c
100
AcDbEntity
  8
0
 62
5
100
AcDbPolyline
 90
1
 70
1
 10
41.937659
 20
43.678329
 30
0.0
  0
SPLINE
  5
19d
100
AcDbEntity
  8
0
 62
5
100
AcDbSpline
 70
8
 71
3
 72
8
 73
4
 74
0
 40
0
 40
0
 40
0
 40
0
 40
1
 40
1
 40
1
 40
1
 10
53.597042
 20
43.678329
 30
0.0
 10
53.597042
 20
43.492142
 30
0.0
 10
53.497713
 20
43.320099
 30
0.0
 10
53.336471
 20
43.227006
 30
0.0
  0
SPLINE
  5
19e
100
AcDbEntity
  8
0
 62
5
100
AcDbSpline
 70
8
 71
3
 72
8
 73
4
 74
0
 40
0
 40
0
 40
0
 40
0
 40
1
 40
1
 40
1
 40
1
 10
53.336471
 20
43.227006
 30
0.0
 10
53.175229
 20
43.133913
 30
0.0
 10
52.976570
 20
43.133913
 30
0.0
 10
52.815328
 20
43.227006
 30
0.0
  0
SPLINE
  5
19f
100
AcDbEntity
  8
0
 62
5
100
AcDbSpline
 70
8
 71
3
 72
8
 73
4
 74
0
 40
0
 40
0
 40
0
 40
0
 40
1
 40
1
 40
1
 40
1
 10
52.815328
 20
43.227006
 30
0.0
 10
52.654086
 20
43.320099
 30
0.0
 10
52.554756
 20
43.492142
 30
0.0
 10
52.554756
 20
43.678329
 30
0.0
  0
SPLINE
  5
1a0
100
AcDbEntity
  8
0
 62
5
100
AcDbSpline
 70
8
 71
3
 72
8
 73
4
 74
0
 40
0
 40
0
 40
0
 40
0
 40
1
 40
1
 40
1
 40
1
 10
52.554756
 20
43.678329
 30
0.0
 10
52.554756
 20
43.864515
 30
0.0
 10
52.654086
 20
44.036559
 30
0.0
 10
52.815328
 20
44.129652
 30
0.0
  0
SPLINE
  5
1a1
100
AcDbEntity
  8
0
 62
5
100
AcDbSpline
 70
8
 71
3
 72
8
 73
4
 74
0
 40
0
 40
0
 40
0
 40
0
 40
1
 40
1
 40
1
 40
1
 10
52.815328
 20
44.129652
 30
0.0
 10
52.976570
 20
44.222745
 30
0.0
 10
53.175229
 20
44.222745
 30
0.0
 10
53.336471
 20
44.129652
 30
0.0
  0
SPLINE
  5
1a2
100
AcDbEntity
  8
0
 62
5
100
AcDbSpline
 70
8
 71
3
 72
8
 73
4
 74
0
 40
0
 40
0
 40
0
 40
0
 40
1
 40
1
 40
1
 40
1
 10
53.336471
 20
44.129652
 30
0.0
 10
53.497713
 20
44.036559
 30
0.0
 10
53.597042
 20
43.864515
 30
0.0
 10
53.597042
 20
43.678329
 30
0.0
  0
LWPOLYLINE
  5
1a3
100
AcDbEntity
  8
0
 62
5
100
AcDbPolyline
 90
1
 70
1
 10
41.937659
 20
32.896192
 30
0.0
  0
SPLINE
  5
1a4
100
AcDbEntity
  8
0
 62
5
100
AcDbSpline
 70
8
 71
3
 72
8
 73
4
 74
0
 40
0
 40
0
 40
0
 40
0
 40
1
 40
1
 40
1
 40
1
 10
53.597042
 20
32.896192
 30
0.0
 10
53.597042
 20
32.710005
 30
0.0
 10
53.497713
 20
32.537962
 30
0.0
 10
53.336471
 20
32.444869
 30
0.0
  0
SPLINE
  5
1a5
100
AcDbEntity
  8
0
 62
5
100
AcDbSpline
 70
8
 71
3
 72
8
 73
4
 74
0
 40
0
 40
0
 40
0
 40
0
 40
1
 40
1
 40
1
 40
1
 10
53.336471
 20
32.444869
 30
0.0
 10
53.175229
 20
32.351776
 30
0.0
 10
52.976570
 20
32.351776
 30
0.0
 10
52.815328
 20
32.444869
 30
0.0
  0
SPLINE
  5
1a6
100
AcDbEntity
  8
0
 62
5
100
AcDbSpline
 70
8
 71
3
 72
8
 73
4
 74
0
 40
0
 40
0
 40
0
 40
0
 40
1
 40
1
 40
1
 40
1
 10
52.815328
 20
32.444869
 30
0.0
 10
52.654086
 20
32.537962
 30
0.0
 10
52.554756
 20
32.710005
 30
0.0
 10
52.554756
 20
32.896192
 30
0.0
  0
SPLINE
  5
1a7
100
AcDbEntity
  8
0
 62
5
100
AcDbSpline
 70
8
 71
3
 72
8
 73
4
 74
0
 40
0
 40
0
 40
0
 40
0
 40
1
 40
1
 40
1
 40
1
 10
52.554756
 20
32.896192
 30
0.0
 10
52.554756
 20
33.082378
 30
0.0
 10
52.654086
 20
33.254421
 30
0.0
 10
52.815328
 20
33.347515
 30
0.0
  0
SPLINE
  5
1a8
100
AcDbEntity
  8
0
 62
5
100
AcDbSpline
 70
8
 71
3
 72
8
 73
4
 74
0
 40
0
 40
0
 40
0
 40
0
 40
1
 40
1
 40
1
 40
1
 10
52.815328
 20
33.347515
 30
0.0
 10
52.976570
 20
33.440608
 30
0.0
 10
53.175229
 20
33.440608
 30
0.0
 10
53.336471
 20
33.347515
 30
0.0
  0
SPLINE
  5
1a9
100
AcDbEntity
  8
0
 62
5
100
AcDbSpline
 70
8
 71
3
 72
8
 73
4
 74
0
 40
0
 40
0
 40
0
 40
0
 40
1
 40
1
 40
1
 40
1
 10
53.336471
 20
33.347515
 30
0.0
 10
53.497713
 20
33.254421
 30
0.0
 10
53.597042
 20
33.082378
 30
0.0
 10
53.597042
 20
32.896192
 30
0.0
  0
LWPOLYLINE
  5
1aa
100
AcDbEntity
  8
0
 62
5
100
AcDbPolyline
 90
1
 70
1
 10
53.597042
 20
43.678329
 30
0.0
  0
LWPOLYLINE
  5
1ab
100
AcDbEntity
  8
0
 62
5
100
AcDbPolyline
 90
1
 70
1
 10
53.597042
 20
32.896192
 30
0.0
  0
ENDSEC
  0
SECTION
  2
OBJECTS
  0
DICTIONARY
  5
C
330
0
100
AcDbDictionary
  3
ACAD_GROUP
350
D
  3
ACAD_MLINESTYLE
350
17
  0
DICTIONARY
  5
D
330
C
100
AcDbDictionary
  0
DICTIONARY
  5
1A
330
C
100
AcDbDictionary
  0
DICTIONARY
  5
17
330
C
100
AcDbDictionary
  3
STANDARD
350
18
  0
DICTIONARY
  5
19
330
C
100
AcDbDictionary
  0
ENDSEC
  0
EOF
